HIERARCHY
ROOT Hips
{
    OFFSET 0.0 0.0 0.0
    CHANNELS 6 Xposition Yposition Zposition Zrotation Xrotation Yrotation
    JOINT Spine
    {
        OFFSET 0.0 5.0 0.0
        CHANNELS 3 Zrotation Xrotation Yrotation
        JOINT Chest
        {
            OFFSET 0.0 5.0 0.0
            CHANNELS 3 Zrotation Xrotation Yrotation
            JOINT Neck
            {
                OFFSET 0.0 8.0 0.0
                CHANNELS 3 Zrotation Xrotation Yrotation
                JOINT Head
                {
                    OFFSET 0.0 5.0 0.0
                    CHANNELS 3 Zrotation Xrotation Yrotation
                    End Site
                    {
                        OFFSET 0.0 3.0 0.0
                    }
                }
            }
            JOINT LeftShoulder
            {
                OFFSET -5.0 0.0 0.0
                CHANNELS 3 Zrotation Xrotation Yrotation
                JOINT LeftArm
                {
                    OFFSET 0.0 -10.0 0.0
                    CHANNELS 3 Zrotation Xrotation Yrotation
                    JOINT LeftForeArm
                    {
                        OFFSET 0.0 -10.0 0.0
                        CHANNELS 3 Zrotation Xrotation Yrotation
                        End Site
                        {
                            OFFSET 0.0 -3.0 0.0
                        }
                    }
                }
            }
        }
    }
}

MOTION
Frames: 18
Frame Time: 0.033333
960.000000 445.000000 103.910208 0.000000 0.000000 0.000000 0.000000 0.000000 0.000000 23.025492 -16.006897 0.000000 180.000000 11.204283 0.000000 21.801409 -7.870267 -0.000000 158.198591 6.170406 30.000000 15.945396 4.739192 0.000000 18.000000 -0.963247 0.000000
1691.525230 140.756605 92.007369 0.000000 0.000000 0.000000 0.000000 0.000000 0.000000 -163.376529 3.577451 4.973798 16.623471 4.992632 4.973798 -171.853121 -3.790416 3.759997 99.744051 -10.761278 29.763441 -171.126653 -3.461565 -3.759997 0.673538 0.412175 0.313953
1636.048050 128.802021 132.439470 0.000000 0.000000 0.000000 0.000000 0.000000 0.000000 157.904128 4.222891 9.635073 -22.095872 -6.978381 9.635073 -171.936471 -3.749779 7.460697 -143.675701 -2.902942 29.057495 -173.500805 -3.992671 -7.460697 0.570999 0.512411 0.626666
1578.156967 80.474526 133.108567 0.000000 0.000000 0.000000 0.000000 0.000000 0.000000 -139.519796 3.632233 13.690942 40.480204 -14.033697 13.690942 -174.507724 -3.321850 11.043737 119.111399 -3.285700 27.893295 -173.607258 -4.190621 -11.043737 0.461920 0.377180 0.936907
960.418757 444.998421 113.175049 0.000000 0.000000 0.000000 0.000000 0.000000 0.000000 25.077893 4.673912 16.886559 180.000000 -16.731486 16.886559 23.861935 23.120946 14.452610 156.138065 -3.074042 26.289200 17.903699 -0.538822 -14.452610 18.000000 -0.148253 1.243449
960.523360 444.997533 125.921099 0.000000 0.000000 0.000000 0.000000 0.000000 0.000000 25.638906 -28.130302 19.021130 180.000000 2.341087 19.021130 24.425035 -5.527187 17.633558 155.574965 6.946864 24.270510 18.452907 5.453251 -17.633558 18.000000 -0.372979 1.545085
960.627905 444.996447 119.395208 0.000000 0.000000 0.000000 0.000000 0.000000 0.000000 26.219073 -35.572117 19.960535 180.000000 4.960340 19.960535 25.006291 5.628652 20.536413 154.993709 15.002461 21.869059 19.024920 -11.424783 -20.536413 18.000000 0.917613 1.840623
1126.242828 420.359820 128.866752 0.000000 0.000000 0.000000 0.000000 0.000000 0.000000 31.410514 -1.356930 19.645745 -148.589486 -1.049025 19.645745 32.280463 -2.734486 23.115397 -131.603972 -2.626933 19.122720 45.585331 0.371914 -23.115397 -13.449727 -0.063870 2.128896
1257.895088 650.549197 140.860833 0.000000 0.000000 0.000000 0.000000 0.000000 0.000000 25.073180 12.626223 18.096541 -154.926820 -22.373883 18.096541 46.260945 5.927459 25.329838 -154.651428 -5.799601 16.074804 27.339487 5.477811 -25.329838 -13.619892 -0.436736 2.408768
960.941083 444.992008 157.569322 0.000000 0.000000 0.000000 0.000000 0.000000 0.000000 28.072001 -20.439630 15.410265 180.000000 7.251574 15.410265 26.849221 -2.468652 27.144812 153.150779 10.225152 12.773379 20.864045 -2.791689 -27.144812 18.000000 -0.026254 2.679134
1163.815842 547.748709 137.206409 0.000000 0.000000 0.000000 0.000000 0.000000 0.000000 117.162728 14.359197 11.755705 -62.837272 -7.697240 11.755705 102.363764 2.281274 28.531695 -47.376450 -1.140166 9.270510 104.768601 -0.035607 -28.531695 -6.003489 0.065065 2.938926
961.149372 444.988063 168.303204 0.000000 0.000000 0.000000 0.000000 0.000000 0.000000 29.395983 1.575230 7.362491 180.000000 -5.699479 7.362491 28.146217 -3.427886 29.468618 151.853783 -9.573622 5.621439 22.170006 -3.777726 -29.468618 18.000000 0.266563 3.187120
1136.717377 590.104480 142.156069 0.000000 0.000000 0.000000 0.000000 0.000000 0.000000 115.752126 -2.250155 2.506665 -64.247874 -2.037464 2.506665 73.638146 8.714240 29.940802 -21.842452 0.335378 1.883716 75.369282 -1.395354 -29.940802 -6.767207 -0.157615 3.422736
1163.079758 634.077559 148.841549 0.000000 0.000000 0.000000 0.000000 0.000000 0.000000 132.174340 -2.016248 -2.506665 -47.825660 4.139310 -2.506665 94.255711 0.477020 29.940802 -149.364979 -6.595483 -1.883716 30.021641 5.609402 -29.940802 -5.096180 -0.484448 3.644843
961.460830 444.980668 143.823353 0.000000 0.000000 0.000000 0.000000 0.000000 0.000000 31.497152 24.115853 -7.362491 180.000000 17.119448 -7.362491 30.152455 -16.029874 29.468618 149.847545 -8.682989 -5.621439 24.175589 0.594988 -29.468618 18.000000 -0.052480 3.852566
1097.449951 565.089898 168.243264 0.000000 0.000000 0.000000 0.000000 0.000000 0.000000 -119.219568 -6.554122 -11.755705 60.780432 5.557940 -11.755705 -150.180642 -6.475862 28.531695 48.804955 2.193992 -9.270510 -149.874178 -5.715108 -28.531695 2.713854 0.518970 4.045085
1114.140244 528.302071 172.849288 0.000000 0.000000 0.000000 0.000000 0.000000 0.000000 -142.671523 -2.694843 -15.410265 37.328477 2.321456 -15.410265 -177.395681 -2.828008 27.144812 34.687329 -0.428523 -12.773379 161.894167 -0.885836 -27.144812 -0.910956 0.079261 4.221640
1116.433640 479.728639 148.780114 0.000000 0.000000 0.000000 0.000000 0.000000 0.000000 -102.267481 -7.544876 -18.096541 77.732519 2.409411 -18.096541 -163.695626 7.150364 25.329838 38.575767 2.700193 -16.074804 -176.001122 2.217639 -25.329838 0.706594 -0.245351 4.381533
